<svg display="none" xmlns="http://www.w3.org/2000/svg">
  <symbol id="icon-bucket" viewBox="0 0 24 22">
      <path d="M7.77302 14.0968H20.5524C20.8159 14.0968 21.0794 13.8333 21.2111 13.5698L23.9778 3.68889C23.9778 3.4254 23.9778 3.29365 23.846 3.03016C23.7143 2.89841 23.4508 2.76667 23.319 2.76667H6.19206L5.66508 0.526984C5.53333 0.263492 5.26984 0 4.8746 0H0.65873C0.263492 0 0 0.263492 0 0.65873C0 1.05397 0.263492 1.31746 0.65873 1.31746H4.34762C4.47936 1.7127 6.71905 12.1206 6.85079 12.7794C6.06032 13.0429 5.53333 13.8333 5.53333 14.7556C5.53333 15.9413 6.45556 16.8635 7.64127 16.8635H20.4206C20.8159 16.8635 21.0794 16.6 21.0794 16.2048C21.0794 15.8095 20.8159 15.546 20.4206 15.546H7.77302C7.37778 15.546 7.11429 15.2825 7.11429 14.8873C6.98254 14.3603 7.37778 14.0968 7.77302 14.0968ZM22.3968 4.21587L20.0254 12.6476H8.3L6.45556 4.21587H22.3968Z"/>
      <path d="M6.98254 18.9714C6.98254 20.1571 7.90477 21.0793 9.09048 21.0793C10.2762 21.0793 11.1984 20.1571 11.1984 18.9714C11.1984 17.7857 10.2762 16.8635 9.09048 16.8635C8.03651 16.8635 6.98254 17.7857 6.98254 18.9714ZM9.09048 18.3127C9.48572 18.3127 9.74921 18.5762 9.74921 18.9714C9.74921 19.3666 9.48572 19.6301 9.09048 19.6301C8.69524 19.6301 8.43175 19.3666 8.43175 18.9714C8.43175 18.5762 8.69524 18.3127 9.09048 18.3127Z"/>
      <path d="M16.9952 18.9714C16.9952 20.1571 17.9175 21.0793 19.1032 21.0793C20.2889 21.0793 21.2111 20.1571 21.2111 18.9714C21.2111 17.7857 20.2889 16.8635 19.1032 16.8635C17.9175 16.8635 16.9952 17.7857 16.9952 18.9714ZM19.1032 18.3127C19.4984 18.3127 19.7619 18.5762 19.7619 18.9714C19.7619 19.3666 19.4984 19.6301 19.1032 19.6301C18.7079 19.6301 18.4444 19.3666 18.4444 18.9714C18.3127 18.5762 18.7079 18.3127 19.1032 18.3127Z"/>
  </symbol>

  <symbol id="search-icon" viewBox="0 0 18 18">
    <path data-name="search button" d="M1254.66,44.587l-3.49-3.493a7.93,7.93,0,1,0-1.58,1.574l3.5,3.494a1,1,0,0,0,.79.337,1.121,1.121,0,0,0,1.12-1.125A1.034,1.034,0,0,0,1254.66,44.587Zm-15.41-8.212A5.625,5.625,0,1,1,1244.87,42,5.624,5.624,0,0,1,1239.25,36.375Z" transform="translate(-1237 -28.5)"/>
  </symbol>

  <symbol id="icon-twitter" viewBox="0 0 32 32">
    <path d="M1164,1885a16,16,0,1,0,16,16A16,16,0,0,0,1164,1885Zm8.06,12.77c0.01,0.18.01,0.35,0.01,0.53a11.467,11.467,0,0,1-17.65,9.66c0.31,0.03.63,0.05,0.96,0.05a8.1,8.1,0,0,0,5.01-1.72,4.044,4.044,0,0,1-3.77-2.8,3.839,3.839,0,0,0,.76.07,4.108,4.108,0,0,0,1.06-.14,4.037,4.037,0,0,1-3.23-3.96v-0.05a4,4,0,0,0,1.82.51,4.039,4.039,0,0,1-1.24-5.39,11.461,11.461,0,0,0,8.31,4.22,4.036,4.036,0,0,1,6.87-3.68,8.1,8.1,0,0,0,2.56-.98,4.052,4.052,0,0,1-1.77,2.23,8.143,8.143,0,0,0,2.31-.63A7.955,7.955,0,0,1,1172.06,1897.77Z" transform="translate(-1148 -1885)"/>
  </symbol>

  <symbol id="icon-instagramm" viewBox="0 0 32 32">
    <path d="M1207.6,1897.5v-2.95h-0.38l-2.56.01,0.01,2.95Z" transform="translate(-1185 -1885)"/>
  <path d="M1200.92,1904.3a3.06,3.06,0,0,0,3.06-3.06,2.985,2.985,0,0,0-.58-1.78A3.057,3.057,0,1,0,1200.92,1904.3Z" transform="translate(-1185 -1885)"/>
  <path d="M1201,1885a16,16,0,1,0,16,16A16,16,0,0,0,1201,1885Zm8.62,14.46v7.12a3.367,3.367,0,0,1-3.36,3.36h-10.68a3.367,3.367,0,0,1-3.36-3.36v-10.67a3.361,3.361,0,0,1,3.36-3.36h10.68a3.361,3.361,0,0,1,3.36,3.36v3.55Z" transform="translate(-1185 -1885)"/>
  <path d="M1205.68,1901.24a4.755,4.755,0,1,1-9.17-1.78h-2.59v7.12a1.671,1.671,0,0,0,1.66,1.67h10.68a1.664,1.664,0,0,0,1.66-1.67v-7.12h-2.6A4.6,4.6,0,0,1,1205.68,1901.24Z" transform="translate(-1185 -1885)"/>
  </symbol>

  <symbol id="icon-facebook" viewBox="0 0 32 32">
  <path d="M1238,1885a16,16,0,1,0,16,16A16,16,0,0,0,1238,1885Zm4.23,15.93h-2.77v9.88h-4.1v-9.88h-1.96v-3.48h1.96v-2.27a3.851,3.851,0,0,1,4.14-4.14l3.04,0.01v3.39h-2.21a0.835,0.835,0,0,0-.87.95v2.06h3.13Z" transform="translate(-1222 -1885)"/>
  </symbol>

  <symbol id="icon-weather" viewBox="0 0 217 168">
    <path d="M1111.59,360.183V383h5.79V325.956h-5.79v34.227Z" transform="translate(-1016 -215)"/>
    <path d="M1134.76,348.774v22.817h5.79V314.548h-5.79v34.226Z" transform="translate(-1016 -215)"/>
    <path d="M1088.41,348.774v22.817h5.8V314.548h-5.8v34.226Z" transform="translate(-1016 -215)"/>
    <path d="M1076.83,215h-5.79v22.74h5.79V215Z" transform="translate(-1016 -215)"/>
    <path d="M1016,274.651h23.09v-5.7H1016v5.7Z" transform="translate(-1016 -215)"/>
    <path d="M1051.3,245.689l-16.33-16.083-4.1,4.034,16.33,16.082Z" transform="translate(-1016 -215)"/>
    <path d="M1116.53,233.653l-4.1-4.033L1096.11,245.7l4.09,4.034Z" transform="translate(-1016 -215)"/>
    <path d="M1159.41,288.558a43.133,43.133,0,0,0-42.3-33.655,43.584,43.584,0,0,0-17.75,3.746,29.025,29.025,0,0,0-54.64,13.136,28.066,28.066,0,0,0,6.87,18.375,30.51,30.51,0,0,0-6.62,18.976,31.228,31.228,0,0,0,31.32,30.99v0.008h3.43v-5.705h-2.08l-1.33-.008a25.292,25.292,0,1,1,.13-50.579c0.44,0,.87.034,1.3,0.064l0.43,0.028,3.81,0.243,1.72-3.351a37.423,37.423,0,0,1,33.41-20.219c17.56,0,32.97,12.258,36.64,29.146l0.92,4.231,4.38,0.267a20.1,20.1,0,0,1-1.17,40.178c-0.12-.008-0.23-0.013-0.34-0.013l-5.93.013h-2.37v5.705h8.17v-0.017c0.12,0,.24.017,0.36,0.017A25.8,25.8,0,0,0,1159.41,288.558Zm-80.87-10.317c-0.7-.045-1.39-0.1-2.1-0.1a31.6,31.6,0,0,0-20.85,7.824,22.438,22.438,0,0,1-5.08-14.177,23.19,23.19,0,0,1,43.71-10.423A43.2,43.2,0,0,0,1078.54,278.241Z" transform="translate(-1016 -215)"/>
  <path id="degrees_circle" data-name="degrees circle" class="cls-1" d="M1220,235a5,5,0,1,1,5,5A5,5,0,0,1,1220,235Z" transform="translate(-1016 -215)"/>
  <path id="Composite_Path-2" data-name="Composite Path" class="cls-1" d="M1167,371.39a8.01,8.01,0,0,0,16,0c0-5.39-6.21-8.89-6.71-14.89v-0.25a1.291,1.291,0,0,0-2.58,0v0.25C1173.19,362.5,1167,366,1167,371.39Zm9.11,3.11a3.1,3.1,0,0,0,2.26-2.175,1.036,1.036,0,0,1,2.05.175,4.464,4.464,0,0,1-1.48,2.635,4.289,4.289,0,0,1-2.65,1.365,1.028,1.028,0,0,1-1.03-1.014A1.007,1.007,0,0,1,1176.11,374.5Z" transform="translate(-1016 -215)"/>
  </symbol>
</svg>